<?xml version="1.0" encoding="utf-8"?>
<svg version="1.0" width="280.000000pt" height="280.000000pt" viewBox="0 0 280.000000 280.000000" preserveAspectRatio="xMidYMid meet" xmlns="http://www.w3.org/2000/svg">
  <g transform="translate(0.000000,280.000000) scale(0.100000,-0.100000)" fill="#000000" stroke="none">
    <path d="M1327 2649 c-16 -6 -63 -29 -105 -52 -42 -22 -124 -65 -182 -95 -58 -30 -136 -71 -175 -92 -38 -21 -101 -55 -140 -75 -38 -20 -78 -44 -87 -52 -17 -15 -18 -70 -18 -889 l0 -873 30 -21 c17 -12 83 -49 148 -82 64 -33 131 -68 147 -78 26 -16 235 -126 350 -185 30 -15 58 -20 110 -19 73 0 106 15 380 164 119 65 254 136 306 162 31 15 66 39 78 54 21 27 21 27 21 875 0 603 -3 855 -11 873 -6 13 -32 35 -58 49 -124 67 -175 94 -281 149 -63 33 -158 83 -210 111 -52 28 -108 57 -125 66 -37 19 -140 24 -178 10z m153 -62 c14 -8 70 -38 125 -67 55 -29 159 -84 230 -121 214 -112 288 -153 292 -164 3 -10 -37 -33 -341 -194 -340 -179 -328 -174 -381 -174 -31 -1 -66 7 -90 19 -73 36 -340 177 -350 184 -5 4 -68 38 -140 75 -145 75 -159 85 -148 96 12 11 68 41 408 219 66 35 152 80 190 101 57 31 81 38 125 39 30 0 66 -6 80 -13z m-697 -486 c103 -55 179 -95 380 -201 76 -40 135 -76 130 -80 -10 -10 -63 -40 -168 -95 -44 -23 -120 -64 -170 -90 -173 -92 -275 -145 -280 -145 -3 0 -5 149 -5 330 0 228 3 330 11 330 6 0 52 -22 102 -49z m1347 -281 c0 -181 -4 -330 -8 -330 -4 0 -12 4 -17 9 -6 4 -73 41 -150 81 -77 40 -171 90 -210 110 -38 21 -106 57 -150 80 -44 23 -83 45 -88 49 -7 7 12 18 228 131 200 105 311 164 340 182 17 10 36 18 43 18 9 0 12 -73 12 -330z m-760 -410 l0 -370 -27 11 c-16 6 -50 23 -78 38 -27 16 -108 59 -180 96 -71 37 -173 91 -225 120 -52 28 -109 57 -127 64 -18 7 -38 20 -44 28 -17 20 -3 31 111 91 52 27 131 68 175 92 44 23 136 72 205 108 69 36 134 71 145 79 46 31 45 35 45 -357z m172 321 c51 -26 131 -68 178 -93 47 -25 135 -71 195 -103 156 -82 215 -116 215 -124 0 -8 -27 -24 -175 -101 -55 -29 -131 -69 -170 -90 -195 -104 -307 -161 -330 -170 l-25 -10 0 370 c0 229 4 370 10 370 5 0 51 -22 102 -49z m-788 -437 c39 -20 107 -56 151 -79 447 -238 425 -228 495 -229 72 0 76 2 565 265 96 51 152 79 160 79 3 0 4 -176 3 -392 l-3 -391 -55 -30 c-59 -32 -212 -113 -352 -186 -276 -146 -266 -141 -321 -141 -29 0 -61 6 -72 13 -11 8 -92 51 -180 97 -88 46 -189 99 -225 118 -36 19 -97 51 -136 72 -39 21 -80 44 -92 51 -22 14 -22 15 -22 401 0 214 3 388 6 388 4 0 39 -16 78 -36z" style="fill: rgb(74, 111, 206);"/>
    <path d="M2130 2460 c-14 -26 -8 -34 45 -66 64 -37 105 -104 105 -171 0 -52 0 -53 30 -53 28 0 30 2 30 38 0 56 -27 136 -57 172 -22 26 -124 100 -138 100 -2 0 -9 -9 -15 -20z" style="fill: rgb(74, 111, 206);"/>
    <path d="M452 592 c3 -37 13 -82 22 -100 23 -44 87 -106 133 -127 35 -17 37 -17 50 1 7 10 13 20 13 23 0 4 -26 23 -59 43 -66 41 -95 88 -106 176 -6 47 -9 52 -32 52 -25 0 -26 -1 -21 -68z" style="fill: rgb(74, 111, 206);"/>
  </g>
</svg>